<?xml version="1.0" encoding="utf-8"?><!-- Uploaded to: SVG Repo, www.svgrepo.com, Generator: SVG Repo Mixer Tools -->
<svg width="800px" height="800px" viewBox="0 0 400 400" fill="none" xmlns="http://www.w3.org/2000/svg">
<path d="M296.215 154.719C285.523 147.585 272.592 144.572 260.741 139.613C250.81 135.457 218.937 122.059 209.659 134.483C203.112 143.25 217.595 160.857 221.294 167.545C241.987 204.953 311.224 244.394 349 257.04" stroke="#000000" stroke-opacity="0.9" stroke-width="16" stroke-linecap="round" stroke-linejoin="round"/>
<path d="M217.044 129.996C189.974 132.104 161.956 137.72 136.609 147.511C112.885 156.675 81.4554 178.654 61.7464 195.15C59.3224 197.179 49.5841 205.219 51.1745 209.212C58.342 227.209 81.3882 234.967 96.3206 244.51C99.1668 246.33 101.207 249.434 104.321 250.824C124.404 259.789 146.457 264.829 167.754 269.765C194.069 275.864 258.59 272.229 287.763 268.043C306.327 265.38 327.936 256.564 346.339 256.564" stroke="#000000" stroke-opacity="0.9" stroke-width="16" stroke-linecap="round" stroke-linejoin="round"/>
<path d="M293.789 154.603C263.217 156.852 254.299 190.192 275.296 211.512C286.382 222.767 325.928 249.582 341.018 255.71" stroke="#000000" stroke-opacity="0.9" stroke-width="16" stroke-linecap="round" stroke-linejoin="round"/>
</svg>