<?xml version="1.0" encoding="UTF-8" standalone="no"?>
<svg
   width="24"
   height="24"
   viewBox="0 0 24 24"
   fill="none"
   stroke="currentColor"
   stroke-width="2"
   stroke-linecap="round"
   stroke-linejoin="round"
   class="lucide lucide-biceps-flexed-icon lucide-biceps-flexed"
   version="1.1"
   id="svg3"
   sodipodi:docname="muscle-relief.svg"
   xml:space="preserve"
   inkscape:version="1.4.3 (0d15f75, 2025-12-25)"
   xmlns:inkscape="http://www.inkscape.org/namespaces/inkscape"
   xmlns:sodipodi="http://sodipodi.sourceforge.net/DTD/sodipodi-0.dtd"
   xmlns="http://www.w3.org/2000/svg"
   xmlns:svg="http://www.w3.org/2000/svg"><defs
     id="defs3" /><sodipodi:namedview
     id="namedview3"
     pagecolor="#ffffff"
     bordercolor="#000000"
     borderopacity="0.25"
     inkscape:showpageshadow="2"
     inkscape:pageopacity="0.0"
     inkscape:pagecheckerboard="0"
     inkscape:deskcolor="#d1d1d1"
     inkscape:zoom="32.625"
     inkscape:cx="11.984674"
     inkscape:cy="14.452107"
     inkscape:window-width="1031"
     inkscape:window-height="991"
     inkscape:window-x="-8"
     inkscape:window-y="0"
     inkscape:window-maximized="0"
     inkscape:current-layer="svg3" /><path
     d="m 11.060341,13.660678 a 5,5 0 0 1 9.591,1.983 c 0,3.866 -4,7 -9,7 -4.077,0 -8.153,-0.82 -10.371,-2.462 -0.426,-0.316 -0.631,-0.832 -0.62,-1.362 0.109,-5.453 0.618,-16.1759998 7.991,-16.1759998 a 3,3 0 0 1 3,3 2,2 0 0 1 -2,2 c -1.105,0 -1.64,-0.444 -2,-1"
     id="path1" /><path
     d="M15 14a5 5 0 0 0-7.584 2"
     id="path2" /><path
     d="M9.964 6.825C8.019 7.977 9.5 13 8 15"
     id="path3" /><g
     style="fill:#000000;stroke:currentColor;stroke-width:2;stroke-linecap:round;stroke-linejoin:round;fill-opacity:1"
     id="g3"
     transform="matrix(0.43475706,0,0,0.48489272,14.966823,0.71768587)"><path
       d="M 5,12 H 19"
       id="path1-0"
       style="fill:#000000;fill-opacity:1" /><path
       d="M 12,5 V 19"
       id="path2-9"
       style="fill:#000000;fill-opacity:1" /></g><path
     style="opacity:0.95;fill:#dd55ff;fill-opacity:1;stroke-width:0.0613027"
     d="M 19.952207,10.307945 C 19.768611,10.153458 19.770115,10.168204 19.770115,8.5232497 V 7.0215418 l -1.371648,-0.00886 -1.371647,-0.00886 -0.100079,-0.071382 c -0.131333,-0.093673 -0.191109,-0.2151555 -0.191109,-0.388388 0,-0.1599212 0.04916,-0.2719602 0.168115,-0.3831418 l 0.08199,-0.076628 1.392191,-0.00856 1.392191,-0.00856 V 4.5477939 c 0,-1.3383434 0.0059,-1.5318651 0.04976,-1.624225 0.151469,-0.3191973 0.576605,-0.3191973 0.728074,0 0.04383,0.09236 0.04976,0.2858816 0.04976,1.624225 V 6.067166 l 1.392191,0.00856 1.392191,0.00856 0.08199,0.076628 c 0.118954,0.1111816 0.168115,0.2232206 0.168115,0.3831418 0,0.1732325 -0.05978,0.2947148 -0.191108,0.388388 l -0.10008,0.071382 -1.371647,0.00886 -1.371648,0.00886 V 8.539113 c 0,1.662722 0.0054,1.611068 -0.185159,1.771412 -0.133635,0.112447 -0.324907,0.111374 -0.460335,-0.0026 z"
     id="path4" /><path
     style="opacity:0.95;fill:#ffffff;fill-opacity:1;stroke-width:0.0613027"
     d="M 10.559387,21.607085 C 6.9987304,21.472274 3.8243118,20.682926 2.0842912,19.499676 1.708727,19.244285 1.6858238,19.190945 1.6858238,18.571674 c 0,-0.981112 0.1003861,-2.920032 0.2161856,-4.175541 C 2.2820265,10.27595 3.2226631,7.2573545 4.6640208,5.532567 5.6306057,4.3759122 6.7597784,3.7897478 8.2374032,3.6775903 8.913551,3.626268 9.3136736,3.7118411 9.7481701,4.0006938 c 0.3684129,0.2449204 0.6379739,0.599219 0.7845559,1.0311859 0.09025,0.2659713 0.125651,0.6598814 0.07576,0.8430655 L 10.573669,6.002764 10.431373,5.9232333 C 10.25781,5.8262271 9.8887145,5.7933093 9.6678746,5.8551407 9.4922161,5.904322 9.2337943,6.0705462 9.0004659,6.2844368 L 8.8208549,6.4490849 8.6786268,6.2928518 C 8.6004012,6.2069236 8.4760913,6.0656021 8.4023828,5.978804 8.328674,5.892006 8.1976395,5.7836912 8.1111951,5.7381045 7.9707418,5.6640362 7.9214185,5.6552171 7.6475096,5.655196 7.365672,5.6551743 7.3279093,5.6624224 7.1784352,5.7452284 6.9920956,5.8484572 6.8372405,6.0080801 6.7393303,6.1978526 6.6487945,6.3733316 6.6238403,6.771451 6.6910189,6.9686093 6.8228417,7.3554884 7.3688052,7.9457275 7.8573143,8.2294869 7.994019,8.3088944 8.0043525,8.3230654 7.9873907,8.4078737 7.8978265,8.855695 7.8311693,9.6998829 7.7860441,10.957854 7.7345968,12.392069 7.6715185,13.02661 7.5239237,13.594672 7.4221787,13.986267 7.3456395,14.145275 7.0417474,14.596383 6.8974382,14.8106 6.6988371,15.148531 6.6004116,15.34734 L 6.4214559,15.708812 6.4216034,16 c 1.302e-4,0.258107 0.00971,0.309353 0.084288,0.451083 0.1787157,0.339617 0.48253,0.534199 0.865756,0.554487 0.45747,0.02422 0.7731779,-0.193616 1.0340604,-0.713485 0.2131816,-0.424814 0.4192472,-0.719458 0.7249597,-1.036586 0.31043,-0.322022 0.6153453,-0.557725 0.9590995,-0.741397 l 0.25135,-0.134299 0.09358,0.07874 c 0.171176,0.144036 0.348224,0.20297 0.615112,0.204756 0.201979,0.0014 0.275582,-0.01245 0.417472,-0.07827 0.221398,-0.102702 0.39348,-0.259271 0.483861,-0.440241 l 0.07173,-0.143623 0.233776,0.02075 c 0.751015,0.06666 1.364201,0.284603 2.029112,0.721206 0.338938,0.222559 0.548275,0.291302 0.805276,0.26444 0.35865,-0.03749 0.666397,-0.246997 0.819375,-0.557819 0.06366,-0.129338 0.07423,-0.19468 0.074,-0.457407 -2.95e-4,-0.337725 -0.04103,-0.454856 -0.235024,-0.675803 -0.240919,-0.274392 -1.176688,-0.797618 -1.799346,-1.006086 l -0.318163,-0.106522 0.241534,-0.121083 c 0.586838,-0.294188 1.10069,-0.414139 1.774102,-0.414139 0.354961,0 0.531275,0.01516 0.773445,0.06651 1.598701,0.338978 2.80562,1.546316 3.137762,3.138851 0.120963,0.579988 0.08301,1.359176 -0.09777,2.007559 -0.431968,1.54923 -1.759433,2.973295 -3.563448,3.82276 -1.113385,0.524266 -2.301515,0.818386 -3.652286,0.904119 -0.533743,0.03388 -0.758634,0.03369 -1.685824,-0.0014 z"
     id="path5" /><path
     style="opacity:0.95;fill:#ffffff;fill-opacity:1;stroke-width:0.0613027"
     d=""
     id="path6" /><path
     style="opacity:0.95;fill:#d42aff;fill-opacity:1;stroke-width:0.0613027"
     d="M 20.051,10.3091 C 19.853394,10.210323 19.848839,10.189289 19.826744,9.2734296 19.815744,8.8174878 19.8054,8.1189965 19.803755,7.721227 l -0.003,-0.7232175 -0.418639,-0.020078 c -0.230252,-0.011043 -0.856233,-0.020078 -1.391069,-0.020078 h -0.97243 L 16.907781,6.8351608 c -0.09661,-0.1069346 -0.110846,-0.1426259 -0.110846,-0.2778771 0,-0.1646379 0.0301,-0.2464126 0.131778,-0.35805 0.06277,-0.06891 0.06364,-0.068966 1.094806,-0.068966 0.567595,0 1.199673,-0.00902 1.404619,-0.020036 l 0.372628,-0.020036 0.0035,-0.7692361 c 0.0019,-0.4230798 0.01227,-1.1310677 0.02299,-1.5733066 L 19.846743,2.9435829 19.94695,2.843439 c 0.0832,-0.083154 0.123407,-0.100144 0.236958,-0.100144 0.113553,0 0.153752,0.01699 0.236959,0.100147 l 0.100206,0.1001469 0.01972,0.8500446 c 0.01084,0.4675246 0.02119,1.1755112 0.02299,1.5733036 l 0.0033,0.7232591 0.372628,0.020036 c 0.204946,0.01102 0.837024,0.020036 1.404619,0.020036 1.031166,0 1.03204,5.52e-5 1.094806,0.068966 0.101681,0.1116374 0.131778,0.1934121 0.131778,0.35805 0,0.1352512 -0.01424,0.1709425 -0.110846,0.2778771 l -0.110846,0.1226936 h -0.97243 c -0.534837,0 -1.158879,0.00894 -1.386761,0.019871 L 20.5757,6.9975969 20.55445,8.5026302 c -0.01232,0.8723862 -0.03438,1.5466908 -0.05249,1.6041348 -0.05905,0.187314 -0.28139,0.28708 -0.450925,0.202336 z"
     id="path7" /></svg>
