<?xml version="1.0" encoding="UTF-8" standalone="no"?>
<svg
   width="24"
   height="24"
   viewBox="0 0 24 24"
   fill="none"
   stroke="currentColor"
   stroke-width="2"
   stroke-linecap="round"
   stroke-linejoin="round"
   class="lucide lucide-dumbbell-icon lucide-dumbbell"
   version="1.1"
   id="svg5"
   sodipodi:docname="need-more-doen.svg"
   xml:space="preserve"
   inkscape:version="1.4.3 (0d15f75, 2025-12-25)"
   xmlns:inkscape="http://www.inkscape.org/namespaces/inkscape"
   xmlns:sodipodi="http://sodipodi.sourceforge.net/DTD/sodipodi-0.dtd"
   xmlns="http://www.w3.org/2000/svg"
   xmlns:svg="http://www.w3.org/2000/svg"><defs
     id="defs5" /><sodipodi:namedview
     id="namedview5"
     pagecolor="#ffffff"
     bordercolor="#000000"
     borderopacity="0.25"
     inkscape:showpageshadow="2"
     inkscape:pageopacity="0.0"
     inkscape:pagecheckerboard="0"
     inkscape:deskcolor="#d1d1d1"
     inkscape:zoom="32.625"
     inkscape:cx="11.984674"
     inkscape:cy="12"
     inkscape:window-width="1920"
     inkscape:window-height="1001"
     inkscape:window-x="-9"
     inkscape:window-y="-9"
     inkscape:window-maximized="1"
     inkscape:current-layer="svg5" /><g
     id="g5"
     transform="matrix(0.5732442,0.63938972,-0.5767912,0.64771731,12.012092,-1.8206892)"><path
       d="M 17.596,12.768 A 2.0004051,2.0004051 0 1 0 20.425,9.939 L 18.657,8.172 A 2.0000516,2.0000516 0 0 0 21.485,5.343 L 18.657,2.515 A 2.0000516,2.0000516 0 0 0 15.828,5.343 L 14.061,3.575 a 2.0004051,2.0004051 0 1 0 -2.829,2.829 z"
       id="path1" /><path
       d="M 2.5,21.5 3.9,20.1"
       id="path2" /><path
       d="M 20.1,3.9 21.5,2.5"
       id="path3" /><path
       d="m 5.343,21.485 a 2.0000516,2.0000516 0 1 0 2.829,-2.828 l 1.767,1.768 a 2.0004051,2.0004051 0 1 0 2.829,-2.829 L 6.404,11.232 a 2.0004051,2.0004051 0 1 0 -2.829,2.829 l 1.768,1.767 a 2.0000516,2.0000516 0 0 0 -2.828,2.829 z"
       id="path4" /><path
       d="M 9.6,14.4 14.4,9.6"
       id="path5" /></g><g
     style="fill:#ff0000;stroke:currentColor;stroke-width:2;stroke-linecap:round;stroke-linejoin:round"
     id="g6"
     transform="matrix(0.40804598,0,0,0.40804598,-0.72413789,-1.1609195)"><path
       d="M 5,12 H 19"
       id="path1-0"
       style="fill:#ff0000" /><path
       d="M 12,5 V 19"
       id="path2-9"
       style="fill:#ff0000" /></g><path
     style="opacity:0.95;fill:#ff0000;stroke-width:0.0613027"
     d="M 3.9815442,6.9189293 C 3.769921,6.7775559 3.7702157,6.779691 3.7701626,5.3869732 L 3.7701149,4.137931 2.5210728,4.1378835 C 1.1283549,4.1378302 1.1304902,4.1381251 0.98911673,3.9265018 0.90492685,3.8004772 0.9010957,3.6962707 0.97554836,3.5574455 1.0916727,3.3409193 1.0911296,3.3409962 2.5052689,3.3409962 h 1.264846 V 2.1002371 c 0,-1.0661476 0.00691,-1.25801767 0.04907,-1.36339608 0.09038,-0.22588225 0.3495802,-0.31148579 0.5581389,-0.18433115 0.1865009,0.1137065 0.1897263,0.13973098 0.1897263,1.53079683 v 1.2576895 h 1.2576895 c 1.3910658,0 1.4170903,0.00323 1.5307969,0.1897263 0.1271547,0.2085587 0.041551,0.4677587 -0.1843313,0.5581388 -0.1053784,0.042164 -0.2972484,0.04907 -1.3633962,0.04907 H 4.5670498 v 1.264846 c 0,1.4141395 7.69e-5,1.4135963 -0.2164493,1.5297205 -0.1388252,0.074453 -0.2430318,0.070622 -0.3690563,-0.013568 z"
     id="path6" /></svg>
