<?xml version="1.0" encoding="utf-8"?>
<!-- Uploaded to: SVG Repo, www.svgrepo.com, Generator: SVG Repo Mixer Tools -->
<svg fill="#000000" height="800px" width="800px" version="1.1" id="_x31_" xmlns="http://www.w3.org/2000/svg" xmlns:xlink="http://www.w3.org/1999/xlink" 
	 viewBox="0 0 128 128" xml:space="preserve">
<g>
	<polygon points="86.5,37.6 43.3,37.6 41.9,37.6 41.9,37.7 87.9,37.7 87.9,37.6 	"/>
	<polyline points="41.9,37.6 43.3,37.6 86.5,37.6 87.9,37.6 	"/>
	<path d="M96.6,37.7V36v-4.4h1.6h3.7v-15h-3.7H31.6h-3.7v15h3.7h1.6V36v1.7c-6.7,0.6-11.8,6.2-11.8,13v50.7c0,5.1,3,9.5,7.2,11.7
		c1.7,0.9,3.7,1.4,5.8,1.4h60.8c2.1,0,4-0.5,5.8-1.4c4.3-2.1,7.2-6.6,7.2-11.7V50.7C108.3,43.9,103.2,38.3,96.6,37.7z M41.9,37.6
		v-1.7v-4.3h1.4h43.2h1.4v4.3v1.7v0.1L41.9,37.6L41.9,37.6z M95.3,107.2H34.5c-3.2,0-5.8-2.6-5.8-5.8l0-6.8h72.4l0,6.8
		C101.1,104.6,98.5,107.2,95.3,107.2z M28.7,61.7c0,0,0-11.1,0-11.1c0-3.2,2.6-5.8,5.8-5.8h59.2c0.1,0,0.3,0,0.4,0
		c0.1,0,0.1,0,0.2,0c0.2,0,0.4,0,0.6,0h0.5c3.2,0,5.8,2.6,5.8,5.8l0,11.1H28.7z"/>
</g>
</svg>