<?xml version="1.0" encoding="UTF-8" standalone="no"?>
<svg
   width="24"
   height="24"
   viewBox="0 0 24 24"
   fill="none"
   stroke="currentColor"
   stroke-width="2"
   stroke-linecap="round"
   stroke-linejoin="round"
   class="lucide lucide-meh-icon lucide-meh"
   version="1.1"
   id="svg3"
   sodipodi:docname="too-tired.svg"
   xml:space="preserve"
   inkscape:version="1.4.3 (0d15f75, 2025-12-25)"
   xmlns:inkscape="http://www.inkscape.org/namespaces/inkscape"
   xmlns:sodipodi="http://sodipodi.sourceforge.net/DTD/sodipodi-0.dtd"
   xmlns="http://www.w3.org/2000/svg"
   xmlns:svg="http://www.w3.org/2000/svg"><defs
     id="defs3" /><sodipodi:namedview
     id="namedview3"
     pagecolor="#ffffff"
     bordercolor="#000000"
     borderopacity="0.25"
     inkscape:showpageshadow="2"
     inkscape:pageopacity="0.0"
     inkscape:pagecheckerboard="0"
     inkscape:deskcolor="#d1d1d1"
     inkscape:zoom="32.625"
     inkscape:cx="12.015326"
     inkscape:cy="11.969349"
     inkscape:window-width="1920"
     inkscape:window-height="1001"
     inkscape:window-x="-9"
     inkscape:window-y="-9"
     inkscape:window-maximized="1"
     inkscape:current-layer="g1" /><g
     id="g5"
     transform="matrix(1.2173092,0,0,1.2376484,0.17615228,-1.7669751)"><g
       id="g3"
       transform="matrix(0.63418873,0,0,0.61771521,0.69624862,3.6985285)"><circle
         cx="12"
         cy="12"
         r="10"
         id="circle1" /><line
         x1="9"
         x2="9.0100002"
         y1="9"
         y2="9"
         id="line2" /><line
         x1="15"
         x2="15.01"
         y1="9"
         y2="9"
         id="line3" /><path
         style="opacity:0.95;fill:#808080"
         id="path3"
         sodipodi:type="arc"
         sodipodi:cx="11.78544"
         sodipodi:cy="15.908046"
         sodipodi:rx="1.762452"
         sodipodi:ry="1.0727968"
         sodipodi:start="6.2648721"
         sodipodi:end="6.0769706"
         sodipodi:arc-type="slice"
         d="m 13.547597,15.888401 a 1.762452,1.0727968 0 0 1 -1.64717,1.090156 1.762452,1.0727968 0 0 1 -1.866344,-0.950328 1.762452,1.0727968 0 0 1 1.47189,-1.179407 1.762452,1.0727968 0 0 1 2.004578,0.839562 l -1.725111,0.219662 z" /></g><g
       style="fill:#999999;stroke:currentColor;stroke-width:2;stroke-linecap:round;stroke-linejoin:round"
       id="g4"
       transform="matrix(0.33925084,0.00546421,-0.00335786,0.19221646,10.437304,11.322237)"
       inkscape:transform-center-x="0.18833122"
       inkscape:transform-center-y="-2.0248028"><path
         d="M 12.8,19.6 A 2,2 0 1 0 14,16 H 2"
         id="path1"
         style="fill:#999999" /><path
         d="m 17.5,8 a 2.5,2.5 0 1 1 2,4 H 2"
         id="path2"
         style="fill:#999999" /><path
         d="M 9.8,4.4 A 2,2 0 1 1 11,8 H 2"
         id="path3-8"
         style="fill:#999999" /></g></g><g
     style="fill:#00ffff;stroke:currentColor;stroke-width:2;stroke-linecap:round;stroke-linejoin:round"
     id="g1"
     transform="matrix(0.11320611,0,0,0.19361453,3.2737108,1.9054492)"><g
       id="g34"
       transform="translate(-25.992667,14.722938)"><path
         d="M 42.730914,9.1959314 A 10.001697,6.8974467 0 0 0 52.732611,2.2984839 c 0,-1.97069899 -1.428814,-3.8428631 -4.286442,-5.4194224 -2.857627,-1.5765592 -5.000849,-3.9413981 -5.715255,-6.4047719 -0.714407,2.4633738 -2.857628,4.8282127 -5.715256,6.4047719 -2.857627,1.5765593 -4.286441,3.44872341 -4.286441,5.4194224 a 10.001697,6.8974467 0 0 0 10.001697,6.8974475 z"
         id="path1-0"
         style="fill:#00ffff;stroke-width:2.37308" /><path
         style="opacity:0.95;fill:#00ffff;stroke-width:0.385994"
         d="m 40.150093,9.717771 c -5.320927,-1.2079856 -8.456939,-5.4151936 -6.97073,-9.3517864 0.51553,-1.3655101 1.674307,-2.641217 3.541046,-3.8983663 2.702894,-1.8202554 4.202755,-3.4401479 4.875558,-5.2657416 0.382847,-1.0388279 0.650131,-1.3724867 1.099431,-1.3724867 0.45874,0 0.71577,0.3255808 1.203915,1.5249855 0.65975,1.6210363 1.986336,3.1038865 4.003913,4.4755376 3.495044,2.3761074 4.456755,3.6500064 4.629508,6.1323209 0.232075,3.3347389 -2.177285,6.2491607 -6.175999,7.4706408 -1.756874,0.5366686 -4.535776,0.6642262 -6.206642,0.2848962 z m 6.048308,-2.4288876 c 2.35414,-0.7999755 3.933124,-2.2517772 4.444985,-4.0869562 0.512892,-1.8388749 -0.380713,-3.31490849 -3.126047,-5.1635264 -2.025645,-1.3640025 -3.027527,-2.2564209 -4.020431,-3.5811686 l -0.755779,-1.0083701 -0.8992,1.1438455 c -1.123062,1.4286119 -1.632205,1.8758694 -3.843145,3.3760241 -0.973245,0.6603616 -2.073253,1.5867905 -2.444462,2.05873081 -0.600956,0.76403322 -0.674746,1.02520539 -0.67332,2.38305989 0.0018,1.7204595 0.417248,2.5002285 1.957124,3.6735276 1.630608,1.2424289 3.565924,1.7682425 6.233006,1.6934692 1.463604,-0.041046 2.104994,-0.1412528 3.127269,-0.4886358 z"
         id="path34" /></g></g></svg>
