<?xml version="1.0" encoding="UTF-8" standalone="no"?>
<!-- Uploaded to: SVG Repo, www.svgrepo.com, Generator: SVG Repo Mixer Tools -->

<svg
   width="800px"
   height="800px"
   viewBox="0 0 64 64"
   aria-hidden="true"
   role="img"
   class="iconify iconify--emojione-monotone"
   preserveAspectRatio="xMidYMid meet"
   version="1.1"
   id="svg5"
   sodipodi:docname="arms.svg"
   inkscape:version="1.4.3 (0d15f75, 2025-12-25)"
   xmlns:inkscape="http://www.inkscape.org/namespaces/inkscape"
   xmlns:sodipodi="http://sodipodi.sourceforge.net/DTD/sodipodi-0.dtd"
   xmlns="http://www.w3.org/2000/svg"
   xmlns:svg="http://www.w3.org/2000/svg">
  <defs
     id="defs5" />
  <sodipodi:namedview
     id="namedview5"
     pagecolor="#ffffff"
     bordercolor="#000000"
     borderopacity="0.25"
     inkscape:showpageshadow="2"
     inkscape:pageopacity="0.0"
     inkscape:pagecheckerboard="0"
     inkscape:deskcolor="#d1d1d1"
     inkscape:zoom="0.93375"
     inkscape:cx="399.46452"
     inkscape:cy="400"
     inkscape:window-width="1920"
     inkscape:window-height="986"
     inkscape:window-x="-11"
     inkscape:window-y="-11"
     inkscape:window-maximized="1"
     inkscape:current-layer="svg5" />
  <path
     d="M 61.88,45.061 C 61.807,44.262 61.737,43.509 61.788,42.94 62.239,37.913 60.774,33.381 57.552,29.837 53.897,25.816 48.649056,25.899605 42.654056,25.899605 34.306056,25.899605 26.795,27.789 23.422,35.116 c -0.008,0.019 -0.018,0.038 -0.025,0.057 -0.775,-2.853 -1.557,-4.833 -2.183,-6.42 -1.058,-2.684 -1.626,-4.123 -1.171,-7.279 0.825737,-0.08983 1.600106,-0.44491 2.207,-1.012 0.105,0.007 0.214,0.012 0.324,0.012 1.135,0 2.119,-0.43 2.83,-1.196 l 0.088,0.001 c 1.413,0 2.616,-0.611 3.417,-1.689 1.954,-0.164 3.304,-1.342 3.571,-3.157 C 32.84,11.997 31.988,5.179 30.147,3.033 29.417,2.18 28.611,2 28.065,2 24.95,2 20.078,2.719 15.942,3.788 8.404,5.736 7.226,7.703 7.039,9.2 6.274,15.377 5.14,20.887 4.138,25.749 2.718,32.637 1.597,38.078 2.139,42.356 c 0.211,1.669 0.632,3.101 1.038,4.484 0.508,1.726 1.031,3.511 1.208,5.952 0.243,3.393 3.907,5.339 10.053,5.339 2.409,0 4.866,-0.314 6.882,-0.873 C 23.792,58.442 31.949,62 40.661,62 43.657,62 46.448,61.572 48.96,60.728 61.813,56.402 62.39,50.616 61.88,45.061 M 4.124,42.103 C 3.258,35.27 7.191,24.255 9.025,9.449 9.336,6.944 20.738,4.322 27.01,4.039 c -0.255,0.205 -0.438,0.474 -0.462,0.76 0.752,-0.341 1.875,-0.451 2.426,0.673 0.029,-0.188 0.041,-0.355 0.041,-0.511 0.288,0.564 0.551,1.333 0.773,2.209 0.279,1.26 0.435,2.552 0.438,3.849 0.002,0.901 0.198,4.113 -1.285,3.695 -0.914,-0.258 -0.937,-1.101 -1.198,-1.969 -0.402,-1.357 -1.11,-2.921 -1.024,-4.363 -0.349,1.415 0.066,3.113 0.22,4.544 0.088,0.833 0.664,3.084 -0.356,3.391 -0.564,0.173 -1.218,-0.224 -1.685,-0.515 -0.178,-0.112 -0.311,-0.931 -0.376,-1.161 -0.402,-1.406 -1.122,-3.023 -1.03,-4.5 -0.352,1.332 -0.009,2.937 0.103,4.302 0.069,0.846 0.496,2.68 -0.458,3.106 -1.08,0.565 -1.246,-0.805 -1.446,-1.523 -0.371,-1.333 -0.974,-2.791 -0.958,-4.189 -0.377,1.703 0.066,3.697 0.139,5.441 0.039,0.866 -1.776,1.648 -2.453,1.104 -1.061,-0.853 -1.24,-2.85 -1.36,-4.141 0.318,0.434 0.774,0.995 1.353,0.938 -0.492,-0.561 -0.701,-1.523 -1.03,-2.205 -0.302,-0.56 -0.915,-1.893 -1.636,-1.915 0.111,0.239 0.719,1.886 0.625,2.06 -0.293,0.545 -0.578,1.099 -0.904,1.621 -0.277,0.439 -1.081,1.838 -1.73,1.415 -0.701,-0.454 -1.141,-2.487 -1.141,-2.487 0,0 0.026,2.535 0.932,3.122 0.858,0.558 1.836,-0.322 2.404,-0.95 0.113,1.205 0.439,2.618 1.168,3.55 -2.142,9.499 1.801,9.404 4.459,22.102 0,0 1.752,-2.583 3.284,-5.91 8.055182,-7.090648 11.692888,-8.141719 18.237465,-8.099071 C 49.658892,27.525797 55.685,28.492 58.279,34.384 c 0.857,1.946 1.07,4.272 0.838,6.834 C 58.738,45.391 62.856,52.18 47.495,57.281 35.306,61.328 20.314,53.568 20.314,53.568 16.202,54.912 6.586,55.499 6.383,52.651 6.048,47.986 4.567,45.611 4.124,42.103"
     fill="#000000"
     id="path1"
     sodipodi:nodetypes="cccscccccscccccsccccccscscccccccccccccccccccccccccccccccccccccscccccc" />
  <path
     d="M34.245 53.57c2.677.982 5.586 1.249 8.392.915c2.808-.34 5.556-1.257 7.95-2.803c1.188-.778 2.293-1.714 3.182-2.837c.869-1.127 1.573-2.429 1.736-3.81c-1.728 2.114-3.926 3.278-6.191 4.203c-2.277.9-4.672 1.461-7.086 1.75c-2.416.279-4.855.282-7.271-.093a21.33 21.33 0 0 1-7.174-2.484c1.364 2.402 3.804 4.179 6.462 5.159"
     fill="#000000"
     id="path2" />
  <path
     d="M25.566 6.85c.424-2.749-2.332-1.844-2.428-.672c.752-.342 1.877-.451 2.428.672"
     fill="#000000"
     id="path3" />
  <path
     d="M22.841 8.37c.425-2.75-2.33-1.847-2.426-.671c.752-.345 1.876-.453 2.426.671"
     fill="#000000"
     id="path4" />
  <path
     d="M19.694 9.957c.425-2.749-2.33-1.845-2.426-.671c.753-.345 1.875-.452 2.426.671"
     fill="#000000"
     id="path5" />
</svg>
