<?xml version="1.0" encoding="UTF-8" standalone="no"?>
<!-- Uploaded to: SVG Repo, www.svgrepo.com, Generator: SVG Repo Mixer Tools -->

<svg
   height="800px"
   width="800px"
   version="1.1"
   id="Capa_1"
   viewBox="0 0 446.615 446.615"
   xml:space="preserve"
   sodipodi:docname="back-updated.svg"
   inkscape:version="1.4.3 (0d15f75, 2025-12-25)"
   xmlns:inkscape="http://www.inkscape.org/namespaces/inkscape"
   xmlns:sodipodi="http://sodipodi.sourceforge.net/DTD/sodipodi-0.dtd"
   xmlns="http://www.w3.org/2000/svg"
   xmlns:svg="http://www.w3.org/2000/svg"><defs
   id="defs31" /><sodipodi:namedview
   id="namedview31"
   pagecolor="#ffffff"
   bordercolor="#000000"
   borderopacity="0.25"
   inkscape:showpageshadow="2"
   inkscape:pageopacity="0.0"
   inkscape:pagecheckerboard="0"
   inkscape:deskcolor="#d1d1d1"
   inkscape:zoom="0.93375"
   inkscape:cx="398.39357"
   inkscape:cy="400"
   inkscape:window-width="1920"
   inkscape:window-height="986"
   inkscape:window-x="-11"
   inkscape:window-y="-11"
   inkscape:window-maximized="1"
   inkscape:current-layer="Capa_1" />
<g
   id="g31">
	<g
   id="g30">
		<g
   id="g1">
			<path
   style="fill:#010002"
   d="m 275.755,383.323 0.862,-0.626 C 317.723,352.8 314,339.648 304.506,320.652 c -5.227,-10.445 -4.55934,-18.09485 1.38266,-38.38385 1.528,-9.137 -1.04966,-18.27215 3.60034,-24.01115 4.105,-5.08 8.746,-10.819 11.892,-20.256 2.113,-8.494 -1.845,-20.955 -5.316,-31.945 -1.179,-3.731 -2.398,-7.568 -3.154,-10.673 19.728,6.064 40.505,15.33 48.552,36.774 l 0.033,0.065 c 1.975,14.558 8.998,49.69 32.01,68.873 l 0.821,0.683 44.032,-6.893 0.52,-0.927 c 18.086,-31.653 0.951,-52.275 -15.607,-72.214 -7.486,-9.015 -14.566,-17.541 -18.33,-26.954 -3.276,-8.218 -4.089,-17.826 -4.861,-27.239 -1.187,-13.997 -2.406,-28.458 -11.762,-39.903 -8.348,-10.226 -14.78956,-24.61139 -26.61656,-28.456391 -7.08,-2.3 -27.02444,0.380391 -33.33244,0.380391 -1.926,0 -3.853,0.024 -5.812,0.065 -1.959,0.024 -3.894,0.065 -5.836,0.065 -10.266,0 -18.696,-1.024 -26.467,-5.999 -4.828,-3.089 -8.73,-7.202 -12.868,-11.567 -3.609,-3.82 -7.69,-8.137 -12.477,-11.469 -8.92576,-6.003878 -7.32495,-18.192563 -16.20195,-18.996563 -4.926,-0.447 16.28823,-1.044879 -25.13334,-1.187757 -8.844,0.805 -22.18215,-3.157025 -29.92015,2.247975 -4.739,3.308 -20.62256,25.390345 -24.43456,29.405345 -4.129,4.365 -8.031,8.478 -12.859,11.567 -7.779,4.975 -16.192,5.999 -26.459,5.999 -1.926,0 -3.885,-0.041 -5.901,-0.065 -1.91,-0.041 -3.837,-0.065 -5.763,-0.065 -6.292,0 -26.244442,0.90688 -33.324442,3.20688 C 73.684436,109.61327 66.637,117.422 58.297,127.648 c -9.364,11.445 -10.592,25.938 -11.77,40.001 -0.772,9.315 -1.569,18.923 -4.861,27.141 -3.772,9.429 -10.844,17.94 -18.33,26.954 -16.558,19.948 -33.685,40.578 -15.607,72.214 l 0.528,0.927 44.138,6.113 0.813,-0.683 c 23.004,-19.175 30.035,-54.299 32.01,-68.857 l 0.024,-0.081 c 8.047,-21.459 28.832,-30.71 48.552,-36.766 -0.732,3.056 -1.902,6.779 -3.146,10.673 -3.487,10.998 -7.43,23.459 -5.251,32.189 3.081,9.242 7.722,14.965 11.819,20.004 4.633,5.739 3.2601,8.90337 4.8851,18.43837 7.03975,21.67563 5.3079,33.51963 0.0889,43.98063 -9.486,18.98 -13.209,32.132 27.897,62.029 l 0.87,0.626 m 7.15,-98.901 c -4.877,-4.918 -12.103,-10.079 -18.501,-14.664 l -0.317,-0.228 c -3.942,-2.812 -7.657,-5.462 -10.38,-7.747 l -0.829,-0.683 -0.122,0.146 c -1.674,-2.577 -3.536,-4.91 -5.438,-7.275 -3.91,-4.837 -7.966,-9.836 -10.592,-17.631 -1.634,-6.6 2.154,-18.582 5.202,-28.247 1.87,-5.901 3.26,-10.453 3.869,-14.184 14.932,-0.91 25.662,-18.899 35.172,-34.847 5.454,-9.161 11.64,-19.525 15.574,-19.923 1.821,-0.203 4.081,0.74 6.503,2.764 9.543,7.958 19.492,30.653 20.882,47.617 1.481,18.047 -17.329,75.117 -41.023,94.902 z m 136.755,-47.56 c -2.691,8.039 -6.73,13.046 -10.657,17.883 -1.983,2.447 -3.894,4.861 -5.617,7.543 -2.642,2.146 -5.942,4.52 -9.982,7.389 -6.454,4.601 -13.721,9.787 -18.631,14.737 -23.695,-19.785 -42.488,-76.856 -41.017,-94.901 1.382,-16.964 11.347,-39.667 20.89,-47.617 2.211,-1.861 4.219,-2.796 5.966,-2.796 0.171,0 0.35,0.016 0.536,0.033 3.926,0.398 10.388,11.242 15.582,19.956 9.137,15.347 19.468,32.685 33.669,34.668 0.48,3.853 1.959,8.746 3.975,15.119 2.904,9.12 6.871,21.597 5.286,27.986 z"
   id="path1"
   sodipodi:nodetypes="cccccccccccccccccccscsccccccccscscccccccccccccccccccccccccccccccccccccccccsccccc" />
		</g>
		<g
   id="g2">
			<circle
   style="fill:#010002;"
   cx="174.53"
   cy="202.145"
   r="3.487"
   id="circle1" />
		</g>
		<g
   id="g3">
			<circle
   style="fill:#010002;"
   cx="185.772"
   cy="160.722"
   r="3.487"
   id="circle2" />
		</g>
		<g
   id="g4">
			<circle
   style="fill:#010002;"
   cx="180.935"
   cy="178.182"
   r="3.495"
   id="circle3" />
		</g>
		<g
   id="g5">
			<circle
   style="fill:#010002;"
   cx="204.988"
   cy="173.337"
   r="3.495"
   id="circle4" />
		</g>
		<g
   id="g6">
			<circle
   style="fill:#010002;"
   cx="202.557"
   cy="193.025"
   r="3.495"
   id="circle5" />
		</g>
		<g
   id="g7">
			<circle
   style="fill:#010002;"
   cx="150.754"
   cy="206.99"
   r="3.495"
   id="circle6" />
		</g>
		<g
   id="g8">
			<circle
   style="fill:#010002;"
   cx="148.34"
   cy="229.4"
   r="3.495"
   id="circle7" />
		</g>
		<g
   id="g9">
			<circle
   style="fill:#010002;"
   cx="183.349"
   cy="218.345"
   r="3.495"
   id="circle8" />
		</g>
		<g
   id="g10">
			<circle
   style="fill:#010002;"
   cx="202.557"
   cy="211.607"
   r="3.495"
   id="circle9" />
		</g>
		<g
   id="g11">
			<circle
   style="fill:#010002;"
   cx="167.824"
   cy="231.831"
   r="3.495"
   id="circle10" />
		</g>
		<g
   id="g12">
			<circle
   style="fill:#010002;"
   cx="200.135"
   cy="229.4"
   r="3.495"
   id="circle11" />
		</g>
		<g
   id="g13">
			<circle
   style="fill:#010002;"
   cx="185.772"
   cy="243.95"
   r="3.487"
   id="circle12" />
		</g>
		<g
   id="g14">
			<circle
   style="fill:#010002;"
   cx="180.935"
   cy="264.329"
   r="3.495"
   id="circle13" />
		</g>
		<g
   id="g15">
			<circle
   style="fill:#010002;"
   cx="165.402"
   cy="252.095"
   r="3.487"
   id="circle14" />
		</g>
		<g
   id="g16">
			<circle
   style="fill:#010002;"
   cx="273.658"
   cy="199.032"
   r="3.495"
   id="circle15" />
		</g>
		<g
   id="g17">
			<circle
   style="fill:#010002;"
   cx="262.416"
   cy="157.617"
   r="3.487"
   id="circle16" />
		</g>
		<g
   id="g18">
			<circle
   style="fill:#010002;"
   cx="267.253"
   cy="175.069"
   r="3.503"
   id="circle17" />
		</g>
		<g
   id="g19">
			<circle
   style="fill:#010002;"
   cx="243.2"
   cy="170.232"
   r="3.495"
   id="circle18" />
		</g>
		<g
   id="g20">
			<circle
   style="fill:#010002;"
   cx="245.622"
   cy="189.92"
   r="3.495"
   id="circle19" />
		</g>
		<g
   id="g21">
			<circle
   style="fill:#010002;"
   cx="297.418"
   cy="203.876"
   r="3.503"
   id="circle20" />
		</g>
		<g
   id="g22">
			<circle
   style="fill:#010002;"
   cx="299.848"
   cy="226.287"
   r="3.495"
   id="circle21" />
		</g>
		<g
   id="g23">
			<circle
   style="fill:#010002;"
   cx="264.83"
   cy="215.24"
   r="3.495"
   id="circle22" />
		</g>
		<g
   id="g24">
			<circle
   style="fill:#010002;"
   cx="245.622"
   cy="208.493"
   r="3.495"
   id="circle23" />
		</g>
		<g
   id="g25">
			<circle
   style="fill:#010002;"
   cx="280.356"
   cy="228.717"
   r="3.503"
   id="circle24" />
		</g>
		<g
   id="g26">
			<circle
   style="fill:#010002;"
   cx="248.053"
   cy="226.287"
   r="3.495"
   id="circle25" />
		</g>
		<g
   id="g27">
			<circle
   style="fill:#010002;"
   cx="262.408"
   cy="240.837"
   r="3.495"
   id="circle26" />
		</g>
		<g
   id="g28">
			<circle
   style="fill:#010002;"
   cx="267.253"
   cy="261.215"
   r="3.495"
   id="circle27" />
		</g>
		<g
   id="g29">
			<circle
   style="fill:#010002;"
   cx="282.778"
   cy="248.99"
   r="3.495"
   id="circle28" />
		</g>
	</g>
</g>
</svg>
