<?xml version="1.0" encoding="UTF-8" standalone="no"?>
<!-- Uploaded to: SVG Repo, www.svgrepo.com, Generator: SVG Repo Mixer Tools -->

<svg
   width="800px"
   height="800px"
   viewBox="0 0 24 24"
   fill="none"
   version="1.1"
   id="svg5"
   sodipodi:docname="cardio-updated.svg"
   inkscape:version="1.4.3 (0d15f75, 2025-12-25)"
   xmlns:inkscape="http://www.inkscape.org/namespaces/inkscape"
   xmlns:sodipodi="http://sodipodi.sourceforge.net/DTD/sodipodi-0.dtd"
   xmlns="http://www.w3.org/2000/svg"
   xmlns:svg="http://www.w3.org/2000/svg">
  <defs
     id="defs5" />
  <sodipodi:namedview
     id="namedview5"
     pagecolor="#ffffff"
     bordercolor="#000000"
     borderopacity="0.25"
     inkscape:showpageshadow="2"
     inkscape:pageopacity="0.0"
     inkscape:pagecheckerboard="0"
     inkscape:deskcolor="#d1d1d1"
     inkscape:zoom="0.93375"
     inkscape:cx="399.46452"
     inkscape:cy="399.46452"
     inkscape:window-width="1920"
     inkscape:window-height="986"
     inkscape:window-x="-11"
     inkscape:window-y="-11"
     inkscape:window-maximized="1"
     inkscape:current-layer="svg5" />
  <path
     stroke="#1c274c"
     stroke-width="1.5"
     id="circle1"
     sodipodi:type="arc"
     sodipodi:cx="15"
     sodipodi:cy="4"
     sodipodi:rx="1.9036144"
     sodipodi:ry="2"
     sodipodi:start="6.2044422"
     sodipodi:end="6.0769706"
     sodipodi:arc-type="arc"
     d="M 16.897716,3.8426765 A 1.9036144,2 0 0 1 15.210132,5.9877777 1.9036144,2 0 0 1 13.115675,4.2839947 1.9036144,2 0 0 1 14.66979,2.0303199 1.9036144,2 0 0 1 16.863283,3.5904874"
     sodipodi:open="true" />
  <path
     d="M11 16.0001V15.0263C11 14.9078 11 14.8486 10.9979 14.792C10.9672 13.9811 10.6095 13.2173 10.0062 12.6747C9.96408 12.6368 9.91852 12.5989 9.8275 12.523C9.69411 12.4118 9.62741 12.3563 9.5758 12.3066C8.80944 11.5689 8.75462 10.3604 9.45104 9.5563C9.49795 9.50214 9.55934 9.44075 9.68211 9.31798L10.0113 8.98874C10.9639 8.03622 10.6532 6.42287 9.41502 5.89224C8.84181 5.64658 8.18464 5.69719 7.65581 6.02771L4.5 8.00009"
     stroke="#1C274C"
     stroke-width="1.5"
     stroke-linecap="round"
     id="path1" />
  <path
     d="m 2.9705627,15.529437 h 0.350796 c 1.2582448,0 3.7822251,-0.60192 4.5755484,-2.201444"
     stroke="#1c274c"
     stroke-width="1.5"
     stroke-linecap="round"
     id="path2"
     sodipodi:nodetypes="csc" />
  <path
     d="m 11.728916,9.9036145 c 2.031662,0.9516755 3.627368,0.4785495 4.317269,0.2248995"
     stroke="#1c274c"
     stroke-width="1.5"
     stroke-linecap="round"
     id="path3"
     sodipodi:nodetypes="cc" />
  <path
     d="M19.4888 21.9996H3.08684C2.48659 21.9996 2 21.513 2 20.9128C2 20.3848 2.37943 19.9332 2.89949 19.8422L19.0559 17.0148C20.5926 16.7459 22 17.9284 22 19.4884C22 20.8753 20.8757 21.9996 19.4888 21.9996Z"
     stroke="#1C274C"
     stroke-width="1.5"
     stroke-linejoin="round"
     id="path4" />
  <path
     d="M19.1218 10.0213L18.3801 9.91005L19.1218 10.0213ZM22.1471 7.73544C22.5533 7.6542 22.8167 7.25908 22.7354 6.85291C22.6542 6.44674 22.2591 6.18333 21.8529 6.26456L22.1471 7.73544ZM18.7417 17.6113L19.8635 10.1326L18.3801 9.91005L17.2583 17.3887L18.7417 17.6113ZM19.8635 10.1326C20.0436 8.93217 20.9568 7.97349 22.1471 7.73544L21.8529 6.26456C20.0428 6.62658 18.6539 8.08452 18.3801 9.91005L19.8635 10.1326Z"
     fill="#1C274C"
     id="path5" />
  <path
     style="opacity:0.95;fill:#ddff55;fill-opacity:0;stroke-width:0.03"
     id="path6"
     sodipodi:type="arc"
     sodipodi:cx="8.6265059"
     sodipodi:cy="11.228915"
     sodipodi:rx="5.7349396"
     sodipodi:ry="2.4257028"
     sodipodi:start="6.2044422"
     sodipodi:end="6.0769706"
     sodipodi:open="true"
     sodipodi:arc-type="arc"
     d="M 14.343675,11.038105 A 5.7349396,2.4257028 0 0 1 9.2595606,13.639794 5.7349396,2.4257028 0 0 1 2.9496782,11.573359 5.7349396,2.4257028 0 0 1 7.6316952,8.8399859 5.7349396,2.4257028 0 0 1 14.239939,10.732237" />
</svg>
