<?xml version="1.0" encoding="UTF-8" standalone="no"?>
<!-- Uploaded to: SVG Repo, www.svgrepo.com, Generator: SVG Repo Mixer Tools -->

<svg
   height="800px"
   width="800px"
   version="1.1"
   id="Capa_1"
   viewBox="0 0 203.322 203.322"
   xml:space="preserve"
   sodipodi:docname="led-updated.svg"
   inkscape:version="1.4.3 (0d15f75, 2025-12-25)"
   xmlns:inkscape="http://www.inkscape.org/namespaces/inkscape"
   xmlns:sodipodi="http://sodipodi.sourceforge.net/DTD/sodipodi-0.dtd"
   xmlns="http://www.w3.org/2000/svg"
   xmlns:svg="http://www.w3.org/2000/svg"><defs
   id="defs1" /><sodipodi:namedview
   id="namedview1"
   pagecolor="#ffffff"
   bordercolor="#000000"
   borderopacity="0.25"
   inkscape:showpageshadow="2"
   inkscape:pageopacity="0.0"
   inkscape:pagecheckerboard="0"
   inkscape:deskcolor="#d1d1d1"
   inkscape:zoom="0.93375"
   inkscape:cx="399.46452"
   inkscape:cy="400"
   inkscape:window-width="1920"
   inkscape:window-height="986"
   inkscape:window-x="-11"
   inkscape:window-y="-11"
   inkscape:window-maximized="1"
   inkscape:current-layer="Capa_1" />
<g
   id="g1">
	<path
   style="fill:#010002"
   d="m 171.589,12.068 -0.655,0.118 c -11.599,2.108 -21.373,13.184 -30.828,23.917 -5.064,5.733 -9.835,11.148 -14.68,14.92 l -3.171,2.741 c -18.574,16.023 -18.939,17.089 -12.959,38.061 0.512,1.789 1.067,3.736 1.618,5.715 3.908,19.526 2.212,25.242 -2.333,40.513 -0.68,2.287 -1.417,4.788 -2.226,7.576 -2.938,10.289 -2.036,25.363 -1.378,36.375 0.254,4.234 0.626,10.533 0.394,11.771 -1.55,1.245 -2.806,1.818 -3.933,1.818 -1.109,0 -2.076,-0.523 -3.303,-1.195 -1.46,-0.794 -3.271,-1.782 -5.562,-1.782 -1.324,0 -2.656,0.319 -3.922,0.941 -15.121,3.532 -29.264,5.468 -39.825,5.468 -7.018,0 -11.875,-0.888 -13.353,-2.452 l -0.004,-0.011 c 15.085,-5.583 17.49,-6.123 21.176,-6.964 0.82,-0.179 1.711,-0.383 2.77,-0.655 C 81.217,183.922 90.673,170.988 87.52,150.546 85.638,135.44 81.991,119.653 78.437,104.243 76.225,94.652 73.938,84.731 72.145,75.176 64.912,43.367 80.026,27.248 105.274,3.578 L 105.754,3.12 102.84,0 102.357,0.455 C 78.6,22.722 59.836,40.309 67.974,76.051 c 1.786,9.545 4.076,19.498 6.292,29.121 l 0.043,0.186 c 3.504,15.135 7.111,30.792 8.983,45.791 2.799,18.141 -5.336,29.143 -24.862,33.652 -1.102,0.276 -1.972,0.476 -2.799,0.662 -3.883,0.87 -6.449,1.453 -23.123,7.659 l -1.009,0.369 -0.297,1.027 c -0.548,1.84 -0.132,3.622 1.174,5.003 2.376,2.523 7.899,3.801 16.409,3.801 10.633,0 25.972,-2.108 41.085,-5.647 l 0.379,-0.15 c 2.276,-1.117 3.776,-0.483 5.851,0.644 1.478,0.812 3.164,1.721 5.322,1.721 2.18,0 4.409,-0.963 6.814,-2.917 1.746,-1.424 1.632,-4.789 1.002,-15.285 -0.633,-10.683 -1.496,-25.32 1.235,-34.879 0.791,-2.759 1.528,-5.25 2.215,-7.544 4.62,-15.55 6.531,-21.992 2.394,-42.703 -0.523,-1.861 -1.009,-3.579 -1.471,-5.182 l -0.197,-0.716 c 4.39065,-12.413566 -7.04111,-12.957936 1.83235,-21.948056 l 9.89662,-7.304141 C 131.04152,65.89453 145.2028,45.635554 153.67602,40.263924 162.64102,30.103924 161.56,18.239 171.695,16.399 l 0.658,-0.118 z"
   id="path1"
   sodipodi:nodetypes="cccccccccccscscscccccccccccccccccccccscccsccccccccccccc" />
</g>
</svg>
