<?xml version="1.0" encoding="UTF-8" standalone="no"?>
<!-- Uploaded to: SVG Repo, www.svgrepo.com, Generator: SVG Repo Mixer Tools -->

<svg
   height="800px"
   width="800px"
   version="1.1"
   id="Capa_1"
   viewBox="0 0 453.051 453.051"
   xml:space="preserve"
   sodipodi:docname="shoulders.svg"
   inkscape:version="1.4.3 (0d15f75, 2025-12-25)"
   xmlns:inkscape="http://www.inkscape.org/namespaces/inkscape"
   xmlns:sodipodi="http://sodipodi.sourceforge.net/DTD/sodipodi-0.dtd"
   xmlns="http://www.w3.org/2000/svg"
   xmlns:svg="http://www.w3.org/2000/svg"><defs
   id="defs21" /><sodipodi:namedview
   id="namedview21"
   pagecolor="#ffffff"
   bordercolor="#000000"
   borderopacity="0.25"
   inkscape:showpageshadow="2"
   inkscape:pageopacity="0.0"
   inkscape:pagecheckerboard="0"
   inkscape:deskcolor="#d1d1d1"
   inkscape:zoom="0.93375"
   inkscape:cx="399.46452"
   inkscape:cy="400"
   inkscape:window-width="1920"
   inkscape:window-height="986"
   inkscape:window-x="-11"
   inkscape:window-y="-11"
   inkscape:window-maximized="1"
   inkscape:current-layer="Capa_1" />
<g
   id="g21">
	<g
   id="g20">
		<g
   id="g1">
			<path
   style="fill:#010002"
   d="m 429.353,226.161 c -7.592,-9.145 -14.745,-17.777 -18.558,-27.296 -3.341,-8.332 -4.154,-18.102 -4.934,-27.572 -1.195,-14.217 2.42195,-39.2404 -7.08105,-50.8554 -8.47,-10.356 -27.727,-15.85806 -39.724,-19.75906 -7.202,-2.340998 -19.53195,1.59546 -25.90495,1.59546 -1.983,0 -3.959,0.033 -5.926,0.065 -1.991,0.033 -3.95,0.065 -5.918,0.065 -10.421,0 -18.972,-1.032 -26.881,-6.096 -4.885,-3.13 -8.852,-7.299 -13.046,-11.73 -3.845,-4.064 -7.828,-8.275 -12.648,-11.64 -7.852,-5.479 -17.135,-6.316 -26.133,-7.129 -5.804,-0.52 -11.282,-1.016 -16.086,-2.731 -0.211,-0.081 -0.39,-0.098 -0.545,-0.098 -0.455,-0.089 -0.902,-0.065 -1.284,0 l -0.496,0.098 c -4.796,1.715 -9.844,2.203 -15.176,2.723 -8.275,0.813 -16.81,1.65 -24.678,7.137 -4.796,3.349 -8.787,7.568 -12.681,11.656 -4.194,4.422 -8.145,8.608 -13.03,11.713 -7.893,5.064 -16.444,6.096 -26.873,6.096 -1.951,0 -3.926,-0.033 -5.918,-0.065 -1.967,-0.033 -3.942,-0.065 -5.918,-0.065 -6.381,0 -5.97458,-2.72347 -27.12594,-4.627928 -11.998,3.901998 -30.664506,12.436528 -39.117506,22.791528 -9.51,11.632 -5.279554,36.6554 -6.474554,50.8804 -0.797,9.445 -1.601,19.208 -4.934,27.548 -3.812,9.543 -10.99,18.184 -18.606,27.353 -16.786,20.224 -34.148,41.155 -15.81,73.23 0.894,1.593 3.13,2.154 4.666,1.276 0.618,-0.35 24.646,1.382 35.953,1.813 -0.211,1 -0.041,2.073 0.658,2.918 1.171,1.398 3.406,1.618 4.828,0.439 23.37,-19.476 30.482,-55.128 32.466,-69.824 l 0.041,-0.098 c 8.161,-21.785 29.279,-31.173 49.284,-37.326 -0.748,3.056 -1.926,6.82 -3.211,10.868 -3.536,11.144 -7.543,23.784 -5.324,32.636 3.121,9.348 7.836,15.168 11.998,20.297 4.706,5.828 8.771,10.844 10.413,20.525 5.934,20.175 -0.065,32.197 -5.357,42.813 -9.641,19.24 -13.412,32.579 28.287,62.907 0.536,0.39 87.78,0.065 103.225,0 0,0.008 0.008,0.016 0.008,0.024 0.634,0.886 1.683,1.414 2.788,1.414 0.723,0 1.423,-0.228 2.008,-0.658 41.691,-30.311 37.92,-43.659 28.296,-62.899 -5.308,-10.6 -11.315,-22.606 -5.267,-43.22 1.528,-9.267 5.601,-14.298 10.315,-20.118 4.162,-5.137 8.876,-10.949 12.063,-20.549 2.146,-8.608 -1.861,-21.24 -5.406,-32.384 -1.244,-3.967 -2.447,-7.747 -3.186,-10.86 20.004,6.145 41.114,15.542 49.308,37.391 1.991,14.68 9.104,50.389 32.474,69.857 1.398,1.171 3.658,0.959 4.828,-0.439 0.862,-1.04 0.975,-2.439 0.463,-3.593 8.072,-0.163 37.221,-1.479 37.749,-1.479 1.219,0 2.365,-0.65 2.975,-1.731 18.369,-32.1 0.998,-53.015 -15.836,-73.287 z M 132.18,172.65 c -14.241,4.495 -30.572,7.08 -44.797,7.08 -13.428,0 -24.971,-2.252 -33.425,-6.519 l 0.114,-1.325 c 1.154,-13.778 2.235,-26.808 10.405,-36.798 7.503,-9.169 25.475,-20.045 36.53,-23.638 6.275,-2.032 12.77,-2.317 18.85,-2.317 1.91,0 3.853,0.033 5.885,0.065 8.925,0.146 18.346,0.358 27.808,-2.926 0.179,5.958 0.642,11.583 1.057,16.363 2.154,24.548 3.593,40.773 -22.427,50.015 z m 266.853,0.236 c -8.503,4.479 -20.281,6.844 -34.059,6.844 -14.209,0 -30.507,-2.569 -44.675,-7.039 -26.142,-9.283 -24.703,-25.507 -22.532,-50.064 0.431,-4.861 0.87,-10.592 1.065,-16.623 7.73,2.845 15.647,3.235 23.077,3.235 1.829,0 3.633,-0.016 5.454,-0.049 2.008,-0.033 3.975,-0.065 5.934,-0.065 6.056,0 12.526,0.276 18.793,2.317 11.063,3.593 29.035,14.469 36.538,23.638 8.185,9.998 9.258,23.02 10.396,36.814 l 0.089,0.951 c -0.007,0.008 -0.047,0.033 -0.08,0.041 z"
   id="path1"
   sodipodi:nodetypes="cccccscsccccccccccccscscccccccccccccccccccccscccccccccccscccsccccscccccscccscsccccc" />
		</g>
		<g
   id="g2">
			<circle
   style="fill:#010002;"
   cx="83.271"
   cy="135.112"
   r="4.097"
   id="circle1" />
		</g>
		<g
   id="g3">
			<circle
   style="fill:#010002;"
   cx="108.42"
   cy="124.163"
   r="4.097"
   id="circle2" />
		</g>
		<g
   id="g4">
			<circle
   style="fill:#010002;"
   cx="134.383"
   cy="124.163"
   r="4.097"
   id="circle3" />
		</g>
		<g
   id="g5">
			<circle
   style="fill:#010002;"
   cx="105.405"
   cy="142.322"
   r="4.097"
   id="circle4" />
		</g>
		<g
   id="g6">
			<circle
   style="fill:#010002;"
   cx="134.383"
   cy="142.322"
   r="4.097"
   id="circle5" />
		</g>
		<g
   id="g7">
			<circle
   style="fill:#010002;"
   cx="70.558"
   cy="157.027"
   r="4.097"
   id="circle6" />
		</g>
		<g
   id="g8">
			<circle
   style="fill:#010002;"
   cx="92.464"
   cy="160.059"
   r="4.097"
   id="circle7" />
		</g>
		<g
   id="g9">
			<circle
   style="fill:#010002;"
   cx="134.383"
   cy="160.059"
   r="4.097"
   id="circle8" />
		</g>
		<g
   id="g10">
			<circle
   style="fill:#010002;"
   cx="114.476"
   cy="160.059"
   r="4.097"
   id="circle9" />
		</g>
		<g
   id="g11">
			<circle
   style="fill:#010002;"
   cx="367.348"
   cy="135.324"
   r="4.097"
   id="circle10" />
		</g>
		<g
   id="g12">
			<circle
   style="fill:#010002;"
   cx="342.198"
   cy="124.375"
   r="4.097"
   id="circle11" />
		</g>
		<g
   id="g13">
			<circle
   style="fill:#010002;"
   cx="316.236"
   cy="124.375"
   r="4.097"
   id="circle12" />
		</g>
		<g
   id="g14">
			<circle
   style="fill:#010002;"
   cx="345.23"
   cy="142.534"
   r="4.097"
   id="circle13" />
		</g>
		<g
   id="g15">
			<circle
   style="fill:#010002;"
   cx="316.236"
   cy="142.534"
   r="4.097"
   id="circle14" />
		</g>
		<g
   id="g16">
			<circle
   style="fill:#010002;"
   cx="380.077"
   cy="157.246"
   r="4.097"
   id="circle15" />
		</g>
		<g
   id="g17">
			<circle
   style="fill:#010002;"
   cx="358.147"
   cy="160.27"
   r="4.089"
   id="circle16" />
		</g>
		<g
   id="g18">
			<circle
   style="fill:#010002;"
   cx="316.236"
   cy="160.27"
   r="4.089"
   id="circle17" />
		</g>
		<g
   id="g19">
			<circle
   style="fill:#010002;"
   cx="336.142"
   cy="160.27"
   r="4.089"
   id="circle18" />
		</g>
	</g>
</g>
</svg>
